<?xml version="1.0" encoding="UTF-8"?>
<!DOCTYPE svg PUBLIC "-//W3C//DTD SVG 1.1//EN" "http://www.w3.org/Graphics/SVG/1.1/DTD/svg11.dtd">
<!-- Creator: CorelDRAW 2019 (64-Bit) -->
<svg xmlns="http://www.w3.org/2000/svg" xml:space="preserve" width="21.2972mm" height="21.2972mm" version="1.1" style="shape-rendering:geometricPrecision; text-rendering:geometricPrecision; image-rendering:optimizeQuality; fill-rule:evenodd; clip-rule:evenodd"
viewBox="0 0 484.79 484.79"
 xmlns:xlink="http://www.w3.org/1999/xlink">
 <defs>
  <style type="text/css">
   <![CDATA[
    .fil0 {fill:#039B52;fill-rule:nonzero}
   ]]>
  </style>
 </defs>
 <g id="Layer_x0020_1">
  <metadata id="CorelCorpID_0Corel-Layer"/>
  <g id="_2145421434432">
   <path class="fil0" d="M242.4 0c66.93,0 127.53,27.13 171.4,71 43.86,43.86 71,104.47 71,171.4 0,66.93 -27.13,127.53 -71,171.4 -43.86,43.86 -104.47,71 -171.4,71 -66.93,0 -127.53,-27.13 -171.4,-71 -43.86,-43.86 -71,-104.47 -71,-171.4 0,-66.93 27.13,-127.53 71,-171.4 43.86,-43.86 104.47,-71 171.4,-71zm143.01 99.39c-36.6,-36.6 -87.16,-59.23 -143.01,-59.23 -55.85,0 -106.41,22.64 -143.01,59.23 -36.6,36.6 -59.23,87.16 -59.23,143.01 0,55.85 22.64,106.41 59.23,143.01 36.6,36.6 87.16,59.23 143.01,59.23 55.85,0 106.41,-22.64 143.01,-59.23 36.6,-36.6 59.23,-87.16 59.23,-143.01 0,-55.85 -22.64,-106.41 -59.23,-143.01z"/>
   <path class="fil0" d="M167.22 349.4c-19.45,-17.66 -32.71,-42.21 -35.88,-70.13 -0.24,-1.23 -0.36,-2.5 -0.36,-3.8 0,-11.09 8.99,-20.08 20.08,-20.08l182.69 0 0 0.07c0.62,0 1.25,0.03 1.88,0.09 11,1.04 19.08,10.8 18.04,21.8 -2.78,28.71 -16.19,53.98 -36.09,72.05 -19.97,18.13 -46.42,29.08 -75.18,29.08 -28.76,0 -55.21,-10.95 -75.18,-29.08z"/>
   <path class="fil0" d="M196.47 174.37c0,15.52 -12.58,28.11 -28.11,28.11 -15.52,0 -28.11,-12.58 -28.11,-28.11l0 -0.23c0,-15.52 12.58,-28.11 28.11,-28.11 15.52,0 28.11,12.58 28.11,28.11l0 0.23z"/>
   <path class="fil0" d="M344.54 174.37c0,15.52 -12.58,28.11 -28.11,28.11 -15.52,0 -28.11,-12.58 -28.11,-28.11l0 -0.23c0,-15.52 12.58,-28.11 28.11,-28.11 15.52,0 28.11,12.58 28.11,28.11l0 0.23z"/>
  </g>
 </g>
</svg>
