<?xml version="1.0" encoding="UTF-8"?>
<!DOCTYPE svg PUBLIC "-//W3C//DTD SVG 1.1//EN" "http://www.w3.org/Graphics/SVG/1.1/DTD/svg11.dtd">
<!-- Creator: CorelDRAW 2019 (64-Bit) -->
<svg xmlns="http://www.w3.org/2000/svg" xml:space="preserve" width="21.2972mm" height="21.2972mm" version="1.1" style="shape-rendering:geometricPrecision; text-rendering:geometricPrecision; image-rendering:optimizeQuality; fill-rule:evenodd; clip-rule:evenodd"
viewBox="0 0 2094.74 2094.74"
 xmlns:xlink="http://www.w3.org/1999/xlink">
 <defs>
  <style type="text/css">
   <![CDATA[
    .fil0 {fill:#F6B01D;fill-rule:nonzero}
   ]]>
  </style>
 </defs>
 <g id="Layer_x0020_1">
  <metadata id="CorelCorpID_0Corel-Layer"/>
  <g id="_2145422150896">
   <path class="fil0" d="M1047.37 0c289.21,0 551.06,117.24 740.59,306.78 189.54,189.54 306.78,451.38 306.78,740.59 0,289.21 -117.23,551.07 -306.77,740.6 -189.54,189.54 -451.39,306.77 -740.6,306.77 -289.21,0 -551.06,-117.24 -740.59,-306.78 -189.54,-189.54 -306.78,-451.38 -306.78,-740.59 0,-289.21 117.24,-551.06 306.78,-740.59 189.54,-189.54 451.38,-306.78 740.59,-306.78zm617.92 429.45c-158.13,-158.13 -376.6,-255.95 -617.92,-255.95 -241.32,0 -459.79,97.82 -617.92,255.95 -158.13,158.13 -255.95,376.6 -255.95,617.92 0,241.32 97.82,459.79 255.95,617.92 158.13,158.13 376.6,255.95 617.92,255.95 241.32,0 459.81,-97.82 617.93,-255.94 158.12,-158.12 255.94,-376.61 255.94,-617.93 0,-241.32 -97.82,-459.79 -255.95,-617.92z"/>
   <path class="fil0" d="M848.93 753.43c0,67.07 -54.37,121.44 -121.44,121.44 -67.07,0 -121.44,-54.37 -121.44,-121.44l0 -0.99c0,-67.07 54.37,-121.44 121.44,-121.44 67.07,0 121.44,54.37 121.44,121.44l0 0.99z"/>
   <path class="fil0" d="M1488.7 753.43c0,67.07 -54.37,121.44 -121.44,121.44 -67.07,0 -121.44,-54.37 -121.44,-121.44l0 -0.99c0,-67.07 54.37,-121.44 121.44,-121.44 67.07,0 121.44,54.37 121.44,121.44l0 0.99z"/>
   <path class="fil0" d="M848.93 753.43c0,67.07 -54.37,121.44 -121.44,121.44 -67.07,0 -121.44,-54.37 -121.44,-121.44l0 -0.99c0,-67.07 54.37,-121.44 121.44,-121.44 67.07,0 121.44,54.37 121.44,121.44l0 0.99z"/>
   <path class="fil0" d="M1488.7 753.43c0,67.07 -54.37,121.44 -121.44,121.44 -67.07,0 -121.44,-54.37 -121.44,-121.44l0 -0.99c0,-67.07 54.37,-121.44 121.44,-121.44 67.07,0 121.44,54.37 121.44,121.44l0 0.99z"/>
   <path class="fil0" d="M681.53 1429.05c-47.91,0 -86.75,-38.84 -86.75,-86.75 0,-47.91 38.84,-86.75 86.75,-86.75l731.68 0c47.91,0 86.75,38.84 86.75,86.75 0,47.91 -38.84,86.75 -86.75,86.75l-731.68 0z"/>
  </g>
 </g>
</svg>
