<?xml version="1.0" encoding="UTF-8"?>
<!DOCTYPE svg PUBLIC "-//W3C//DTD SVG 1.1//EN" "http://www.w3.org/Graphics/SVG/1.1/DTD/svg11.dtd">
<!-- Creator: CorelDRAW 2019 (64-Bit) -->
<svg xmlns="http://www.w3.org/2000/svg" xml:space="preserve" width="21.2972mm" height="21.2972mm" version="1.1" style="shape-rendering:geometricPrecision; text-rendering:geometricPrecision; image-rendering:optimizeQuality; fill-rule:evenodd; clip-rule:evenodd"
viewBox="0 0 2094.74 2094.74"
 xmlns:xlink="http://www.w3.org/1999/xlink">
 <defs>
  <style type="text/css">
   <![CDATA[
    .fil1 {fill:#FCCF6F}
    .fil2 {fill:#FEFEFE;fill-rule:nonzero}
    .fil0 {fill:url(#id2);fill-rule:nonzero}
   ]]>
  </style>
    <mask id="id0">
  <linearGradient id="id1" gradientUnits="userSpaceOnUse" x1="1047.45" y1="-178.17" x2="1047.45" y2="1247.3">
   <stop offset="0" style="stop-opacity:1; stop-color:white"/>
   <stop offset="1" style="stop-opacity:0; stop-color:white"/>
  </linearGradient>
     <rect style="fill:url(#id1)" x="119.48" y="119.48" width="1855.79" height="1855.79"/>
    </mask>
  <linearGradient id="id2" gradientUnits="userSpaceOnUse" x1="1381.87" y1="239.81" x2="1381.91" y2="2082.17">
   <stop offset="0" style="stop-opacity:1; stop-color:#F6B01D"/>
   <stop offset="1" style="stop-opacity:1; stop-color:#FF9B05"/>
  </linearGradient>
 </defs>
 <g id="Layer_x0020_1">
  <metadata id="CorelCorpID_0Corel-Layer"/>
  <g id="_2145710708720">
   <path class="fil0" d="M1047.37 0c289.21,0 551.06,117.24 740.59,306.78 189.54,189.54 306.78,451.38 306.78,740.59 0,289.21 -117.24,551.07 -306.78,740.6 -189.54,189.54 -451.38,306.77 -740.59,306.77 -289.21,0 -551.06,-117.24 -740.59,-306.78 -189.54,-189.54 -306.78,-451.38 -306.78,-740.59 0,-289.21 117.24,-551.06 306.78,-740.59 189.54,-189.54 451.38,-306.78 740.59,-306.78z"/>
   <path class="fil1" style="mask:url(#id0)" d="M1696.54 1696.55c166.13,-166.13 268.89,-395.65 268.89,-649.18 0,-253.53 -102.76,-483.04 -268.89,-649.17 -166.13,-166.13 -395.64,-268.89 -649.17,-268.89 -253.53,0 -483.04,102.76 -649.17,268.89 -166.13,166.13 -268.89,395.64 -268.89,649.17 0,253.53 102.76,483.04 268.89,649.17 166.13,166.13 395.64,268.89 649.17,268.89 253.53,0 483.05,-102.76 649.17,-268.88z"/>
   <path class="fil2" d="M848.93 753.43c0,67.07 -54.37,121.44 -121.44,121.44 -67.07,0 -121.44,-54.37 -121.44,-121.44l0 -0.99c0,-67.07 54.37,-121.44 121.44,-121.44 67.07,0 121.44,54.37 121.44,121.44l0 0.99z"/>
   <path class="fil2" d="M1488.7 753.43c0,67.07 -54.37,121.44 -121.44,121.44 -67.07,0 -121.44,-54.37 -121.44,-121.44l0 -0.99c0,-67.07 54.37,-121.44 121.44,-121.44 67.07,0 121.44,54.37 121.44,121.44l0 0.99z"/>
   <path class="fil2" d="M848.93 753.43c0,67.07 -54.37,121.44 -121.44,121.44 -67.07,0 -121.44,-54.37 -121.44,-121.44l0 -0.99c0,-67.07 54.37,-121.44 121.44,-121.44 67.07,0 121.44,54.37 121.44,121.44l0 0.99z"/>
   <path class="fil2" d="M1488.7 753.43c0,67.07 -54.37,121.44 -121.44,121.44 -67.07,0 -121.44,-54.37 -121.44,-121.44l0 -0.99c0,-67.07 54.37,-121.44 121.44,-121.44 67.07,0 121.44,54.37 121.44,121.44l0 0.99z"/>
   <path class="fil2" d="M681.53 1429.05c-47.91,0 -86.75,-38.84 -86.75,-86.75 0,-47.91 38.84,-86.75 86.75,-86.75l731.68 0c47.91,0 86.75,38.84 86.75,86.75 0,47.91 -38.84,86.75 -86.75,86.75l-731.68 0z"/>
  </g>
 </g>
</svg>
