<?xml version="1.0" encoding="UTF-8"?>
<!DOCTYPE svg PUBLIC "-//W3C//DTD SVG 1.1//EN" "http://www.w3.org/Graphics/SVG/1.1/DTD/svg11.dtd">
<!-- Creator: CorelDRAW 2019 (64-Bit) -->
<svg xmlns="http://www.w3.org/2000/svg" xml:space="preserve" width="21.2972mm" height="21.2972mm" version="1.1" style="shape-rendering:geometricPrecision; text-rendering:geometricPrecision; image-rendering:optimizeQuality; fill-rule:evenodd; clip-rule:evenodd"
viewBox="0 0 572.26 572.26"
 xmlns:xlink="http://www.w3.org/1999/xlink">
 <defs>
  <style type="text/css">
   <![CDATA[
    .fil0 {fill:#EF710A;fill-rule:nonzero}
   ]]>
  </style>
 </defs>
 <g id="Layer_x0020_1">
  <metadata id="CorelCorpID_0Corel-Layer"/>
  <g id="_2145422126768">
   <path class="fil0" d="M286.13 0c79.01,0 150.54,32.03 202.32,83.81 51.78,51.78 83.81,123.31 83.81,202.32 0,79.01 -32.03,150.55 -83.81,202.33 -51.78,51.78 -123.31,83.81 -202.32,83.81 -79.01,0 -150.54,-32.03 -202.32,-83.81 -51.78,-51.78 -83.81,-123.31 -83.81,-202.32 0,-79.01 32.03,-150.54 83.81,-202.32 51.78,-51.78 123.31,-83.81 202.32,-83.81zm168.81 117.32c-43.2,-43.2 -102.88,-69.92 -168.81,-69.92 -65.93,0 -125.61,26.72 -168.81,69.92 -43.2,43.2 -69.92,102.88 -69.92,168.81 0,65.93 26.72,125.61 69.92,168.81 43.2,43.2 102.88,69.92 168.81,69.92 65.93,0 125.61,-26.72 168.81,-69.92 43.2,-43.2 69.92,-102.89 69.92,-168.81 0,-65.93 -26.72,-125.61 -69.92,-168.81z"/>
   <path class="fil0" d="M286.13 372.03c-33.96,0 -67.79,5.66 -100.05,16.98l-0.01 -0.03c-7.36,2.56 -15.83,1.42 -22.39,-3.77 -10.22,-8.08 -11.97,-22.92 -3.89,-33.14 15.29,-19.39 34.57,-34.72 56.15,-45.19 21.67,-10.51 45.63,-16.17 70.19,-16.17 24.56,0 48.52,5.66 70.19,16.17 21.18,10.27 40.13,25.23 55.29,44.11 5.5,6.2 7.58,15.11 4.66,23.48 -4.29,12.32 -17.77,18.83 -30.09,14.53 -32.26,-11.32 -66.1,-16.98 -100.05,-16.98z"/>
   <path class="fil0" d="M231.92 205.83c0,18.32 -14.85,33.18 -33.18,33.18 -18.32,0 -33.18,-14.85 -33.18,-33.18l0 -0.27c0,-18.32 14.85,-33.18 33.18,-33.18 18.32,0 33.18,14.85 33.18,33.18l0 0.27z"/>
   <path class="fil0" d="M406.7 205.83c0,18.32 -14.85,33.18 -33.18,33.18 -18.32,0 -33.18,-14.85 -33.18,-33.18l0 -0.27c0,-18.32 14.85,-33.18 33.18,-33.18 18.32,0 33.18,14.85 33.18,33.18l0 0.27z"/>
  </g>
 </g>
</svg>
