<?xml version="1.0" encoding="UTF-8"?>
<!DOCTYPE svg PUBLIC "-//W3C//DTD SVG 1.1//EN" "http://www.w3.org/Graphics/SVG/1.1/DTD/svg11.dtd">
<!-- Creator: CorelDRAW 2019 (64-Bit) -->
<svg xmlns="http://www.w3.org/2000/svg" xml:space="preserve" width="21.2972mm" height="21.2972mm" version="1.1" style="shape-rendering:geometricPrecision; text-rendering:geometricPrecision; image-rendering:optimizeQuality; fill-rule:evenodd; clip-rule:evenodd"
viewBox="0 0 1261.55 1261.55"
 xmlns:xlink="http://www.w3.org/1999/xlink">
 <defs>
  <style type="text/css">
   <![CDATA[
    .fil0 {fill:#02BD4C;fill-rule:nonzero}
   ]]>
  </style>
 </defs>
 <g id="Layer_x0020_1">
  <metadata id="CorelCorpID_0Corel-Layer"/>
  <g id="_2145532361808">
   <path class="fil0" d="M630.78 0c174.18,0 331.87,70.61 446.02,184.76 114.15,114.15 184.76,271.84 184.76,446.02 0,174.18 -70.61,331.87 -184.76,446.02 -114.15,114.15 -271.84,184.76 -446.02,184.76 -174.17,0 -331.87,-70.61 -446.02,-184.76 -114.15,-114.15 -184.76,-271.84 -184.76,-446.02 0,-174.18 70.61,-331.87 184.76,-446.02 114.15,-114.15 271.85,-184.76 446.02,-184.76zm372.14 258.63c-95.23,-95.23 -226.81,-154.14 -372.14,-154.14 -145.33,0 -276.91,58.91 -372.14,154.14 -95.23,95.23 -154.14,226.81 -154.14,372.14 0,145.33 58.91,276.91 154.14,372.14 95.23,95.23 226.81,154.14 372.14,154.14 145.33,0 276.91,-58.91 372.14,-154.14 95.23,-95.23 154.14,-226.81 154.14,-372.14 0,-145.33 -58.91,-276.91 -154.14,-372.14z"/>
   <path class="fil0" d="M352.26 772.78c-17.81,-22.54 -13.97,-55.25 8.57,-73.06 22.54,-17.81 55.25,-13.97 73.06,8.57 23.69,30.03 53.71,53.86 87.46,70.22 33.55,16.26 70.89,25.02 109.44,25.02 38.54,0 75.89,-8.76 109.44,-25.02 33.74,-16.36 63.77,-40.2 87.46,-70.22 17.81,-22.54 50.52,-26.38 73.06,-8.57 22.54,17.81 26.38,50.52 8.57,73.06 -33.72,42.74 -76.21,76.55 -123.78,99.62 -47.78,23.16 -100.59,35.64 -154.74,35.64 -54.15,0 -106.96,-12.48 -154.74,-35.64 -47.57,-23.07 -90.06,-56.88 -123.78,-99.62z"/>
   <path class="fil0" d="M511.26 453.75c0,40.39 -32.75,73.14 -73.14,73.14 -40.39,0 -73.14,-32.75 -73.14,-73.14l0 -0.6c0,-40.39 32.75,-73.14 73.14,-73.14 40.39,0 73.14,32.75 73.14,73.14l0 0.6z"/>
   <path class="fil0" d="M896.57 453.75c0,40.39 -32.75,73.14 -73.14,73.14 -40.39,0 -73.14,-32.75 -73.14,-73.14l0 -0.6c0,-40.39 32.75,-73.14 73.14,-73.14 40.39,0 73.14,32.75 73.14,73.14l0 0.6z"/>
  </g>
 </g>
</svg>
