<?xml version="1.0" encoding="UTF-8"?>
<!DOCTYPE svg PUBLIC "-//W3C//DTD SVG 1.1//EN" "http://www.w3.org/Graphics/SVG/1.1/DTD/svg11.dtd">
<!-- Creator: CorelDRAW 2019 (64-Bit) -->
<svg xmlns="http://www.w3.org/2000/svg" xml:space="preserve" width="21.2972mm" height="21.2972mm" version="1.1" style="shape-rendering:geometricPrecision; text-rendering:geometricPrecision; image-rendering:optimizeQuality; fill-rule:evenodd; clip-rule:evenodd"
viewBox="0 0 331.4 331.4"
 xmlns:xlink="http://www.w3.org/1999/xlink">
 <defs>
  <style type="text/css">
   <![CDATA[
    .fil0 {fill:#FC1F2E;fill-rule:nonzero}
   ]]>
  </style>
 </defs>
 <g id="Layer_x0020_1">
  <metadata id="CorelCorpID_0Corel-Layer"/>
  <g id="_2145423147184">
   <path class="fil0" d="M165.7 0c45.75,0 87.18,18.55 117.17,48.53 29.99,29.99 48.53,71.41 48.53,117.17 0,45.75 -18.55,87.18 -48.53,117.17 -29.99,29.99 -71.41,48.53 -117.17,48.53 -45.75,0 -87.18,-18.55 -117.17,-48.53 -29.99,-29.99 -48.53,-71.41 -48.53,-117.17 0,-45.75 18.55,-87.18 48.53,-117.17 29.99,-29.99 71.41,-48.53 117.17,-48.53zm97.76 67.94c-25.02,-25.02 -59.58,-40.49 -97.76,-40.49 -38.18,0 -72.74,15.48 -97.76,40.49 -25.02,25.02 -40.49,59.58 -40.49,97.76 0,38.18 15.48,72.74 40.49,97.76 25.02,25.02 59.58,40.49 97.76,40.49 38.18,0 72.74,-15.48 97.76,-40.49 25.02,-25.02 40.49,-59.58 40.49,-97.76 0,-38.18 -15.48,-72.74 -40.49,-97.76z"/>
   <path class="fil0" d="M113.98 220.83c-4.68,5.92 -13.27,6.93 -19.19,2.25 -5.92,-4.68 -6.93,-13.27 -2.25,-19.19 8.86,-11.23 20.02,-20.11 32.52,-26.17 12.55,-6.08 26.42,-9.36 40.65,-9.36 14.23,0 28.1,3.28 40.65,9.36 12.5,6.06 23.66,14.94 32.52,26.17 4.68,5.92 3.67,14.51 -2.25,19.19 -5.92,4.68 -14.51,3.67 -19.19,-2.25 -6.22,-7.89 -14.11,-14.15 -22.97,-18.45 -8.81,-4.27 -18.62,-6.57 -28.75,-6.57 -10.13,0 -19.94,2.3 -28.75,6.57 -8.86,4.3 -16.75,10.56 -22.97,18.45z"/>
   <path class="fil0" d="M134.3 119.2c0,10.61 -8.6,19.21 -19.21,19.21 -10.61,0 -19.21,-8.6 -19.21,-19.21l0 -0.16c0,-10.61 8.6,-19.21 19.21,-19.21 10.61,0 19.21,8.6 19.21,19.21l0 0.16z"/>
   <path class="fil0" d="M235.52 119.2c0,10.61 -8.6,19.21 -19.21,19.21 -10.61,0 -19.21,-8.6 -19.21,-19.21l0 -0.16c0,-10.61 8.6,-19.21 19.21,-19.21 10.61,0 19.21,8.6 19.21,19.21l0 0.16z"/>
  </g>
 </g>
</svg>
