<?xml version="1.0" encoding="UTF-8"?>
<!DOCTYPE svg PUBLIC "-//W3C//DTD SVG 1.1//EN" "http://www.w3.org/Graphics/SVG/1.1/DTD/svg11.dtd">
<!-- Creator: CorelDRAW 2019 (64-Bit) -->
<svg xmlns="http://www.w3.org/2000/svg" xml:space="preserve" width="21.2972mm" height="21.2972mm" version="1.1" style="shape-rendering:geometricPrecision; text-rendering:geometricPrecision; image-rendering:optimizeQuality; fill-rule:evenodd; clip-rule:evenodd"
viewBox="0 0 331.4 331.4"
 xmlns:xlink="http://www.w3.org/1999/xlink">
 <defs>
  <style type="text/css">
   <![CDATA[
    .fil1 {fill:#FF8F96}
    .fil2 {fill:#FEFEFE;fill-rule:nonzero}
    .fil0 {fill:url(#id2);fill-rule:nonzero}
   ]]>
  </style>
    <mask id="id0">
  <linearGradient id="id1" gradientUnits="userSpaceOnUse" x1="165.71" y1="-28.19" x2="165.71" y2="197.33">
   <stop offset="0" style="stop-opacity:1; stop-color:white"/>
   <stop offset="1" style="stop-opacity:0; stop-color:white"/>
  </linearGradient>
     <rect style="fill:url(#id1)" x="18.9" y="18.9" width="293.6" height="293.6"/>
    </mask>
  <linearGradient id="id2" gradientUnits="userSpaceOnUse" x1="218.62" y1="37.94" x2="218.62" y2="329.41">
   <stop offset="0" style="stop-opacity:1; stop-color:#FC1F2E"/>
   <stop offset="1" style="stop-opacity:1; stop-color:#A1030E"/>
  </linearGradient>
 </defs>
 <g id="Layer_x0020_1">
  <metadata id="CorelCorpID_0Corel-Layer"/>
  <g id="_2146666452256">
   <path class="fil0" d="M165.7 0c45.75,0 87.18,18.55 117.17,48.53 29.99,29.99 48.53,71.41 48.53,117.17 0,45.75 -18.55,87.18 -48.53,117.17 -29.99,29.99 -71.41,48.53 -117.17,48.53 -45.75,0 -87.18,-18.55 -117.17,-48.53 -29.99,-29.99 -48.53,-71.41 -48.53,-117.17 0,-45.75 18.55,-87.18 48.53,-117.17 29.99,-29.99 71.41,-48.53 117.17,-48.53z"/>
   <path class="fil1" style="mask:url(#id0)" d="M268.4 268.4c26.28,-26.28 42.54,-62.59 42.54,-102.7 0,-40.11 -16.26,-76.42 -42.54,-102.7 -26.28,-26.28 -62.59,-42.54 -102.7,-42.54 -40.11,0 -76.42,16.26 -102.7,42.54 -26.28,26.28 -42.54,62.59 -42.54,102.7 0,40.11 16.26,76.42 42.54,102.7 26.28,26.28 62.59,42.54 102.7,42.54 40.11,0 76.42,-16.26 102.7,-42.54z"/>
   <path class="fil2" d="M113.98 220.83c-4.68,5.92 -13.27,6.93 -19.19,2.25 -5.92,-4.68 -6.93,-13.27 -2.25,-19.19 8.86,-11.23 20.02,-20.11 32.52,-26.17 12.55,-6.08 26.42,-9.36 40.65,-9.36 14.23,0 28.1,3.28 40.65,9.36 12.5,6.06 23.66,14.94 32.52,26.17 4.68,5.92 3.67,14.51 -2.25,19.19 -5.92,4.68 -14.51,3.67 -19.19,-2.25 -6.22,-7.89 -14.11,-14.15 -22.97,-18.45 -8.81,-4.27 -18.62,-6.57 -28.75,-6.57 -10.13,0 -19.94,2.3 -28.75,6.57 -8.86,4.3 -16.75,10.56 -22.97,18.45z"/>
   <path class="fil2" d="M134.3 119.2c0,10.61 -8.6,19.21 -19.21,19.21 -10.61,0 -19.21,-8.6 -19.21,-19.21l0 -0.16c0,-10.61 8.6,-19.21 19.21,-19.21 10.61,0 19.21,8.6 19.21,19.21l0 0.16z"/>
   <path class="fil2" d="M235.52 119.2c0,10.61 -8.6,19.21 -19.21,19.21 -10.61,0 -19.21,-8.6 -19.21,-19.21l0 -0.16c0,-10.61 8.6,-19.21 19.21,-19.21 10.61,0 19.21,8.6 19.21,19.21l0 0.16z"/>
  </g>
 </g>
</svg>
